<svg id="Layer_1" data-name="Layer 1" xmlns="http://www.w3.org/2000/svg" viewBox="0 0 371.34 104.88"><defs><style>.cls-1{fill:#a5b9b2;}.cls-2{fill:#496c60;}.cls-3{fill:#818284;}</style></defs><path class="cls-1" d="M65.59,75.27h0S53.48,60.18,53.48,50.78c0-9,10.82-18.8,12-20.8a18.48,18.48,0,1,0-31.4-.21h0s9.41,11.46,9.41,21c0,9.4-9.38,24.49-9.38,24.49h0a18.48,18.48,0,1,0,31.52,0"/><path class="cls-2" d="M298.09,84.82h5.18V79.49h3.59v13.8h-3.59V87.6h-5.18v5.69h-3.58V79.49h3.58Z"/><path class="cls-2" d="M318.24,82.53H314v2.3h4v3h-4v2.38h4.27v3h-7.85V79.49h7.85Z"/><path class="cls-2" d="M329.91,90.89h-5.12l-.83,2.4h-3.82l5.25-13.8h3.92l5.25,13.8h-3.83Zm-1-2.73-1.61-4.59-1.61,4.59Z"/><path class="cls-2" d="M340.36,79.49V90.25h4.3v3h-7.89V79.49Z"/><path class="cls-2" d="M351.37,82.53V93.29h-3.58V82.53h-3v-3h9.48v3Z"/><path class="cls-2" d="M360.14,84.82h5.17V79.49h3.59v13.8h-3.59V87.6h-5.17v5.69h-3.59V79.49h3.59Z"/><path class="cls-2" d="M77.24,36.15a15.94,15.94,0,0,1,16,16,15.94,15.94,0,0,1-16,16,15.94,15.94,0,0,1-16-16,15.94,15.94,0,0,1,16-16Zm0,3.93a12.07,12.07,0,0,0-12.1,12.13,12.09,12.09,0,0,0,12.1,12.1,11.53,11.53,0,0,0,8.54-3.56,12.07,12.07,0,0,0,0-17.12A11.52,11.52,0,0,0,77.24,40.08Z"/><path class="cls-2" d="M100.43,66.19a1.88,1.88,0,0,1-1.89,1.89h-.09a1.82,1.82,0,0,1-1.33-.55,1.85,1.85,0,0,1-.56-1.34V49.27a13.11,13.11,0,1,1,26.22,0V66.19a1.85,1.85,0,0,1-.56,1.34,1.82,1.82,0,0,1-1.33.55h-.06a1.88,1.88,0,0,1-1.37-.55,1.84,1.84,0,0,1-.55-1.34V49.27a9.24,9.24,0,1,0-18.48,0Z"/><path class="cls-2" d="M156.62,45.49a1.81,1.81,0,0,1,.06,1.46,2,2,0,0,1-1,1L144.3,53.13q-8.76,4-12.44,5.61,4.33,5.57,10.24,5.57a12.08,12.08,0,0,0,11.42-8.14,1.81,1.81,0,0,1,1.86-1.3,1.87,1.87,0,0,1,1.58.8,1.81,1.81,0,0,1,.21,1.74,15.5,15.5,0,0,1-5.72,7.67,15.74,15.74,0,0,1-9.35,3,15.94,15.94,0,0,1-16-16,15.94,15.94,0,0,1,16-16,15.59,15.59,0,0,1,8.73,2.59A15.8,15.8,0,0,1,156.62,45.49ZM142.1,40.08A12.09,12.09,0,0,0,130,52.21a24.93,24.93,0,0,0,.31,3l21.82-9.87Q147.73,40.07,142.1,40.08Z"/><path class="cls-3" d="M164.84,66.19a1.85,1.85,0,0,1-.56,1.34,1.82,1.82,0,0,1-1.33.55h-.1A1.88,1.88,0,0,1,161,66.19v-17a13,13,0,0,1,13-13q6.44,0,11.11,6.12,4.63-6.12,11.07-6.12a13,13,0,0,1,13,13v17a1.83,1.83,0,0,1-.52,1.34,1.86,1.86,0,0,1-1.36.55h-.07a1.82,1.82,0,0,1-1.33-.55,1.84,1.84,0,0,1-.55-1.34v-17a9.18,9.18,0,0,0-18.36,0v17a1.84,1.84,0,0,1-.55,1.34,1.82,1.82,0,0,1-1.33.55h-.07a1.88,1.88,0,0,1-1.91-1.89v-17a9.16,9.16,0,0,0-18.32,0Z"/><path class="cls-3" d="M244.39,45.49a1.85,1.85,0,0,1,.06,1.46,2,2,0,0,1-1,1l-11.39,5.13q-8.76,4-12.44,5.61,4.34,5.57,10.24,5.57a12.08,12.08,0,0,0,11.42-8.14,1.81,1.81,0,0,1,1.86-1.3,1.88,1.88,0,0,1,1.58.8,1.81,1.81,0,0,1,.21,1.74,15.5,15.5,0,0,1-5.72,7.67,15.74,15.74,0,0,1-9.35,3,16,16,0,0,1-16-16,16,16,0,0,1,16-16,15.59,15.59,0,0,1,8.73,2.59A15.8,15.8,0,0,1,244.39,45.49Zm-14.52-5.41a12.09,12.09,0,0,0-12.1,12.13,24.93,24.93,0,0,0,.31,3l21.82-9.87Q235.51,40.07,229.87,40.08Z"/><path class="cls-3" d="M279.19,23.46a1.84,1.84,0,0,1,1.89,1.88V52.21a16,16,0,1,1-27.27-11.39,15.38,15.38,0,0,1,11.3-4.67q6,0,12.1,5.38V25.34a1.83,1.83,0,0,1,1.88-1.88ZM256.53,43.63a12.17,12.17,0,0,0,0,17.12,11.71,11.71,0,0,0,8.58,3.56,11.53,11.53,0,0,0,8.54-3.56,12.07,12.07,0,0,0,0-17.12,11.52,11.52,0,0,0-8.54-3.55A11.7,11.7,0,0,0,256.53,43.63Z"/><path class="cls-3" d="M289.79,28.41a2.44,2.44,0,0,1-2.48-2.48A2.33,2.33,0,0,1,288,24.2a2.4,2.4,0,0,1,1.76-.71,2.48,2.48,0,0,1,2.47,2.44,2.41,2.41,0,0,1-.74,1.77A2.36,2.36,0,0,1,289.79,28.41Zm0,7.74a1.82,1.82,0,0,1,1.33.55,1.86,1.86,0,0,1,.56,1.36V66.19a1.85,1.85,0,0,1-.56,1.34,1.82,1.82,0,0,1-1.33.55h-.06a1.9,1.9,0,0,1-1.92-1.89V38.06a1.86,1.86,0,0,1,.56-1.36,1.84,1.84,0,0,1,1.36-.55Z"/><path class="cls-3" d="M318.31,36.92a1.72,1.72,0,0,1,1.33,1.79v.16a1.75,1.75,0,0,1-.78,1.51,1.77,1.77,0,0,1-1.7.31,11.06,11.06,0,0,0-3.68-.61,12.09,12.09,0,0,0-12.1,12.13,12.1,12.1,0,0,0,12.1,12.1,12.15,12.15,0,0,0,3.68-.56,1.87,1.87,0,0,1,2.48,1.79,1.75,1.75,0,0,1-1.33,1.8,16.12,16.12,0,0,1-4.83.74,15.94,15.94,0,0,1-16-16,15.91,15.91,0,0,1,20.8-15.19Z"/><path class="cls-3" d="M351.53,40.82a15.39,15.39,0,0,1,4.67,11.29V66.19a1.89,1.89,0,0,1-1.89,1.89h-.09a1.82,1.82,0,0,1-1.33-.55,1.85,1.85,0,0,1-.56-1.34V62.7q-6.06,5.39-12.1,5.38a16,16,0,0,1-16-16,16,16,0,0,1,27.27-11.29Zm-19.87,2.75a12.14,12.14,0,0,0,0,17.12,12.12,12.12,0,0,0,20.67-8.58,12.1,12.1,0,0,0-20.67-8.54Z"/><path class="cls-3" d="M365,23.46a1.84,1.84,0,0,1,1.89,1.88V66.19a1.85,1.85,0,0,1-.56,1.34,1.82,1.82,0,0,1-1.33.55H365a1.89,1.89,0,0,1-1.89-1.89V25.34a1.83,1.83,0,0,1,.56-1.36,1.86,1.86,0,0,1,1.33-.52Z"/><path class="cls-2" d="M20.44,36.14A15.93,15.93,0,0,0,5,56.18h6l2.43-6.09a.75.75,0,0,1,.75-.47.77.77,0,0,1,.67.58l2,8.63,3.4-17.12a.74.74,0,0,1,.72-.59.72.72,0,0,1,.73.59L24.89,57.1l2.18-6.4a.73.73,0,0,1,.7-.5.76.76,0,0,1,.7.49l2.18,5.52h5.22a15.77,15.77,0,0,0,.55-4.09,16,16,0,0,0-16-16"/><path class="cls-2" d="M30.13,57.7a.75.75,0,0,1-.7-.5l-1.64-4-2.37,7a.73.73,0,0,1-.75.5.74.74,0,0,1-.68-.59L21,45.57l-3.37,17a.74.74,0,0,1-.72.6h0a.75.75,0,0,1-.72-.57l-2.23-9.7L12.17,57.2a.74.74,0,0,1-.69.47h-6a16,16,0,0,0,29.92,0Z"/></svg>